<svg width="88" height="31" xml:space="preserve" xmlns="http://www.w3.org/2000/svg"><defs><clipPath id="a"><path d="M0 0h53.7L34.3 31H0z" shape-rendering="crispEdges"/></clipPath></defs><g shape-rendering="crispEdges"><path d="M0 0h88v31H0z" fill="#1ab3ff"/><path d="M0 0h88v21H0z" fill="gold"/><path d="M0 0h88v10H0z" fill="#ff1c8d"/></g><g shape-rendering="crispEdges" clip-path="url(#a)"><path d="M0 0h88v31H0z" fill="#340c46"/><path d="M0 0h88v21H0z" fill="#e50051"/><path d="M0 0h88v10H0z" fill="#009fe3"/><path d="M0 0h11l11 10L0 31z" fill="#fff"/><path d="M8.872 5.409a3.105 3.105 0 0 0 0 4.39l.194.195-.206.206a3.105 3.105 0 0 0 4.39 4.39l.207-.206 4.39-4.39.04-.04-4.418-4.34-.012-.011-.194-.194a3.105 3.105 0 0 0-4.39 0z" fill="#fcbf00"/></g><g shape-rendering="crispEdges" fill-opacity=".667"><path d="M0 0h2v29l-2 2zm0 0h88l-2 2H0z" fill="#fff"/><path d="m86 2 2-2v31h-2zM2 29h86v2H0z"/></g></svg>