<svg width="88" height="31" xml:space="preserve" xmlns="http://www.w3.org/2000/svg"><defs><clipPath id="a"><path shape-rendering="crispEdges" d="M0 0h44v31H0z"/></clipPath></defs><g shape-rendering="crispEdges"><path d="M0 0h88v31H0z" fill="#a20160"/><path d="M0 0h88v25H0z" fill="#d161a2"/><path d="M0 0h88v19H0z" fill="#fff"/><path d="M0 0h88v12H0z" fill="#fd9855"/><path d="M0 0h88v6H0z" fill="#d62e02"/></g><g shape-rendering="crispEdges" clip-path="url(#a)"><path d="M0 0h88v31H0z" fill="#5bcefa"/><path d="M0 0h88v25H0z" fill="#f5a9b8"/><path d="M0 0h88v19H0z" fill="#fff"/><path d="M0 0h88v12H0z" fill="#f5a9b8"/><path d="M0 0h88v6H0z" fill="#5bcefa"/></g><g shape-rendering="crispEdges" fill-opacity=".667"><path d="M0 0h2v29l-2 2zm0 0h88l-2 2H0z" fill="#fff"/><path d="m86 2 2-2v31h-2zM2 29h86v2H0z"/></g></svg>